<svg xmlns="http://www.w3.org/2000/svg" width="40.798" height="29.272" viewBox="0 0 40.798 29.272">
  <g id="book" transform="translate(0 -58.303)">
    <g id="Group_115" data-name="Group 115" transform="translate(0 58.303)">
      <path id="Path_1216" data-name="Path 1216" d="M40.008,60.739H37.319v-.917a.791.791,0,0,0-.569-.791,22.276,22.276,0,0,0-5.7-.728c-3.163,0-7.473.712-10.66,3.954-3.163-3.274-7.5-3.954-10.66-3.954a22.276,22.276,0,0,0-5.7.728.791.791,0,0,0-.569.791v.909H.791A.791.791,0,0,0,0,61.522V86.781a.789.789,0,0,0,1.178.688c.079-.04,7.987-4.365,19.027-1.582h.19a.791.791,0,0,0,.19,0c11.072-2.807,18.98,1.51,19.027,1.582a.791.791,0,0,0,1.186-.68V61.53A.791.791,0,0,0,40.008,60.739ZM1.582,85.523v-23.2h1.89V82.155a.791.791,0,0,0,.909.791,34.607,34.607,0,0,1,4.943-.4,20.514,20.514,0,0,1,6.754,1.02A29.073,29.073,0,0,0,1.582,85.523Zm7.742-4.547a34.8,34.8,0,0,0-4.3.277V60.447a21.811,21.811,0,0,1,4.69-.522c2.958,0,7.038.68,9.869,3.875L19.6,83.5C17.96,82.423,14.749,80.976,9.324,80.976ZM21.186,63.8c2.831-3.163,6.912-3.875,9.869-3.875a21.908,21.908,0,0,1,4.69.522V81.253a34.785,34.785,0,0,0-4.278-.285c-5.393,0-8.612,1.447-10.281,2.523ZM39.209,85.523A29.079,29.079,0,0,0,24.682,83.57a20.563,20.563,0,0,1,6.785-1.02,34.6,34.6,0,0,1,4.974.387.791.791,0,0,0,.909-.791V62.321h1.89Z" transform="translate(0 -58.303)" fill="#313450"/>
    </g>
  </g>
</svg>
