<svg xmlns="http://www.w3.org/2000/svg" width="36.442" height="37.59" viewBox="0 0 36.442 37.59">
  <g id="idea" transform="translate(-7.815)">
    <g id="Group_125" data-name="Group 125" transform="translate(36.991 14.141)">
      <g id="Group_124" data-name="Group 124">
        <path id="Path_1226" data-name="Path 1226" d="M406.468,192.83a.734.734,0,0,0-1.038,1.038l.034.033a.734.734,0,0,0,1-1.072Z" transform="translate(-405.214 -192.615)" fill="#313450"/>
      </g>
    </g>
    <g id="Group_127" data-name="Group 127" transform="translate(27.487 11.25)">
      <g id="Group_126" data-name="Group 126">
        <path id="Path_1227" data-name="Path 1227" d="M285.03,155.13a11.489,11.489,0,0,0-1.282-.757,9.847,9.847,0,0,0-7.467-.712.734.734,0,0,0,.436,1.4,8.4,8.4,0,0,1,6.371.621,10.218,10.218,0,0,1,1.118.66.734.734,0,1,0,.825-1.215Z" transform="translate(-275.764 -153.23)" fill="#313450"/>
      </g>
    </g>
    <g id="Group_129" data-name="Group 129" transform="translate(12.503 4.659)">
      <g id="Group_128" data-name="Group 128" transform="translate(0)">
        <path id="Path_1228" data-name="Path 1228" d="M102.6,81.451a9.447,9.447,0,0,1-.808-2.023,6.943,6.943,0,0,0-.885-6.6,13.755,13.755,0,0,0-10.717-5.686,13.138,13.138,0,0,0-6.053,1.471,6.285,6.285,0,1,0-9.461,6.493,1.227,1.227,0,0,1,.709,1.091v4.3a1.488,1.488,0,0,0,1.486,1.487h.25a13.076,13.076,0,0,0,4.428,8.279,2.9,2.9,0,0,1-.2,1.427c-.227.79-.576,1.668-.884,2.443-.206.518-.384.966-.491,1.3a.734.734,0,0,0,.7.956h10.48a1.191,1.191,0,0,0,1.115-.889,7.174,7.174,0,0,0,.3-1.111c.087-.4.292-1.326.5-1.438a.149.149,0,0,1,.041,0,.722.722,0,0,0,.114.009c1.1,0,1.994.05,2.786.094,2.321.129,3.721.207,4.95-1.563.625-.9.554-2.213.479-3.6a13.112,13.112,0,0,1-.008-2.071,6.4,6.4,0,0,1,.65-.485c.692-.475,1.346-.924,1.346-1.607A6.437,6.437,0,0,0,102.6,81.451Zm-27.156-7.6a4.817,4.817,0,1,1,5.025,0,2.672,2.672,0,0,0-1.287,1.573H76.728A2.673,2.673,0,0,0,75.441,73.854ZM79.056,76.9v1.074h-2.2V76.9Zm-2.187,3.616a.021.021,0,0,1-.018-.018V79.437h2.2v1.055a.021.021,0,0,1-.018.018Zm24.377,3.612c-.632.434-1.178.809-1.258,1.376a13.072,13.072,0,0,0-.019,2.469,5.524,5.524,0,0,1-.219,2.687c-.731,1.052-1.362,1.063-3.663.935-.759-.042-1.7-.094-2.817-.1a1.565,1.565,0,0,0-1.639.971,6.821,6.821,0,0,0-.495,1.608,7.8,7.8,0,0,1-.218.847h-9.19l.1-.25c1.058-2.663,1.728-4.616.708-5.5A11.619,11.619,0,0,1,78.6,81.979h.437a1.488,1.488,0,0,0,1.487-1.487V76.2a1.228,1.228,0,0,1,.709-1.092,6.242,6.242,0,0,0,2.985-4.86,11.665,11.665,0,0,1,5.969-1.636,12.364,12.364,0,0,1,9.5,5.033,5.51,5.51,0,0,1,.729,5.272c-.288.694.139,1.655.86,3.167a13.255,13.255,0,0,1,.66,1.529A6.935,6.935,0,0,1,101.246,84.123Z" transform="translate(-71.668 -63.458)" fill="#313450"/>
      </g>
    </g>
    <g id="Group_131" data-name="Group 131" transform="translate(19.76 7.964)">
      <g id="Group_130" data-name="Group 130" transform="translate(0)">
        <path id="Path_1229" data-name="Path 1229" d="M173.143,110.413a2.939,2.939,0,0,0-1.559-1.861.734.734,0,0,0-.673,1.305,1.472,1.472,0,0,1,.814.939,2.226,2.226,0,0,1-.2,1.517.734.734,0,1,0,1.238.789A3.68,3.68,0,0,0,173.143,110.413Z" transform="translate(-170.514 -108.47)" fill="#313450"/>
      </g>
    </g>
    <g id="Group_133" data-name="Group 133" transform="translate(18.054)">
      <g id="Group_132" data-name="Group 132" transform="translate(0)">
        <path id="Path_1230" data-name="Path 1230" d="M148.013,0a.734.734,0,0,0-.734.734V2.827a.734.734,0,0,0,1.468,0V.734A.734.734,0,0,0,148.013,0Z" transform="translate(-147.279)" fill="#313450"/>
      </g>
    </g>
    <g id="Group_135" data-name="Group 135" transform="translate(7.815 10.239)">
      <g id="Group_134" data-name="Group 134" transform="translate(0)">
        <path id="Path_1231" data-name="Path 1231" d="M10.642,139.465H8.549a.734.734,0,1,0,0,1.468h2.093a.734.734,0,0,0,0-1.468Z" transform="translate(-7.815 -139.465)" fill="#313450"/>
      </g>
    </g>
    <g id="Group_137" data-name="Group 137" transform="translate(12.934 1.372)">
      <g id="Group_136" data-name="Group 136">
        <path id="Path_1232" data-name="Path 1232" d="M79.962,20.863l-1.046-1.812a.734.734,0,1,0-1.272.734L78.69,21.6a.734.734,0,1,0,1.272-.734Z" transform="translate(-77.545 -18.684)" fill="#313450"/>
      </g>
    </g>
    <g id="Group_139" data-name="Group 139" transform="translate(9.186 5.12)">
      <g id="Group_138" data-name="Group 138" transform="translate(0)">
        <path id="Path_1233" data-name="Path 1233" d="M29.409,70.879,27.6,69.833a.734.734,0,1,0-.734,1.272l1.812,1.046a.734.734,0,1,0,.734-1.272Z" transform="translate(-26.495 -69.735)" fill="#313450"/>
      </g>
    </g>
    <g id="Group_141" data-name="Group 141" transform="translate(25.11 5.12)">
      <g id="Group_140" data-name="Group 140">
        <path id="Path_1234" data-name="Path 1234" d="M246.564,70.1a.734.734,0,0,0-1-.269l-1.812,1.046a.734.734,0,1,0,.734,1.272L246.3,71.1A.734.734,0,0,0,246.564,70.1Z" transform="translate(-243.382 -69.732)" fill="#313450"/>
      </g>
    </g>
    <g id="Group_143" data-name="Group 143" transform="translate(9.186 14.312)">
      <g id="Group_142" data-name="Group 142" transform="translate(0)">
        <path id="Path_1235" data-name="Path 1235" d="M29.678,195.313a.734.734,0,0,0-1-.269l-1.812,1.046a.734.734,0,1,0,.734,1.272l1.812-1.046A.734.734,0,0,0,29.678,195.313Z" transform="translate(-26.495 -194.946)" fill="#313450"/>
      </g>
    </g>
    <g id="Group_145" data-name="Group 145" transform="translate(12.934 17.556)">
      <g id="Group_144" data-name="Group 144" transform="translate(0)">
        <path id="Path_1236" data-name="Path 1236" d="M79.542,239.225a.734.734,0,0,0-1,.269l-.9,1.551a.734.734,0,1,0,1.272.734l.9-1.551A.734.734,0,0,0,79.542,239.225Z" transform="translate(-77.545 -239.127)" fill="#313450"/>
      </g>
    </g>
    <g id="Group_147" data-name="Group 147" transform="translate(22.128 1.372)">
      <g id="Group_146" data-name="Group 146">
        <path id="Path_1237" data-name="Path 1237" d="M204.911,18.782a.734.734,0,0,0-1,.269l-1.046,1.812a.734.734,0,1,0,1.272.734l1.046-1.812A.734.734,0,0,0,204.911,18.782Z" transform="translate(-202.763 -18.683)" fill="#313450"/>
      </g>
    </g>
  </g>
</svg>
