<svg xmlns="http://www.w3.org/2000/svg" width="37.734" height="33.165" viewBox="0 0 37.734 33.165">
  <path id="portfolio_6_" data-name="portfolio (6)" d="M36.636,4.422H26.606V3.316A3.32,3.32,0,0,0,23.289,0H14.445a3.32,3.32,0,0,0-3.316,3.316V4.422H1.106A1.108,1.108,0,0,0,0,5.527V29.848a3.32,3.32,0,0,0,3.316,3.316h31.1a3.32,3.32,0,0,0,3.316-3.316V5.546a1.073,1.073,0,0,0-1.1-1.124ZM13.34,3.316a1.107,1.107,0,0,1,1.105-1.105h8.844a1.107,1.107,0,0,1,1.105,1.105V4.422H13.34ZM35.1,6.633l-3.433,10.3a1.1,1.1,0,0,1-1.048.756H24.395V16.582a1.105,1.105,0,0,0-1.106-1.105H14.445a1.105,1.105,0,0,0-1.105,1.105v1.105H7.121a1.1,1.1,0,0,1-1.048-.756L2.64,6.633ZM22.184,17.688V19.9H15.551V17.688Zm13.34,12.16a1.107,1.107,0,0,1-1.105,1.105H3.317a1.107,1.107,0,0,1-1.105-1.105V12.34l1.764,5.291A3.312,3.312,0,0,0,7.121,19.9H13.34V21a1.105,1.105,0,0,0,1.105,1.105h8.844A1.105,1.105,0,0,0,24.395,21V19.9h6.219a3.312,3.312,0,0,0,3.146-2.268l1.764-5.291Zm0,0" transform="translate(0)" fill="#313450"/>
</svg>
