<svg xmlns="http://www.w3.org/2000/svg" width="20.606" height="15.92" viewBox="0 0 20.606 15.92">
  <g id="speaker_1_" data-name="speaker (1)" transform="translate(0 -55.15)">
    <g id="Group_150" data-name="Group 150" transform="translate(0 55.15)">
      <path id="Path_1239" data-name="Path 1239" d="M12,55.15a7.949,7.949,0,0,0-6.721,3.692H2.239A2.239,2.239,0,0,0,0,61.081v4.058a2.239,2.239,0,0,0,2.239,2.239H5.281A7.95,7.95,0,0,0,12,71.07a.571.571,0,0,0,.574-.574V55.724A.574.574,0,0,0,12,55.15ZM5.03,66.231H2.239a1.092,1.092,0,0,1-1.092-1.092V61.081a1.092,1.092,0,0,1,1.092-1.092H5.03Zm6.4,3.671a6.847,6.847,0,0,1-5.251-3.254v-7.07a6.847,6.847,0,0,1,5.251-3.254Z" transform="translate(0 -55.15)" fill="#fff"/>
      <path id="Path_1240" data-name="Path 1240" d="M328.553,135.6a.574.574,0,1,0-.654.943,4.27,4.27,0,0,1,0,7.01.578.578,0,0,0-.144.8.575.575,0,0,0,.8.144,5.419,5.419,0,0,0,0-8.9Z" transform="translate(-313.729 -132.086)" fill="#fff"/>
      <path id="Path_1241" data-name="Path 1241" d="M380.753,79.7a.574.574,0,1,0-.654.943,7.156,7.156,0,0,1,0,11.752.578.578,0,0,0-.144.8.575.575,0,0,0,.8.144,8.3,8.3,0,0,0,0-13.638Z" transform="translate(-363.711 -78.561)" fill="#fff"/>
    </g>
  </g>
</svg>
