<svg xmlns="http://www.w3.org/2000/svg" width="20.121" height="12.679" viewBox="0 0 20.121 12.679">
  <path id="video-camera" d="M19.913,1.131a.427.427,0,0,0-.422-.008L14.874,3.644V2.131A2.134,2.134,0,0,0,12.743,0H2.132A2.134,2.134,0,0,0,0,2.131v8.416a2.134,2.134,0,0,0,2.131,2.131H12.743a2.134,2.134,0,0,0,2.131-2.131V9.062l4.617,2.521a.426.426,0,0,0,.631-.374V1.5a.426.426,0,0,0-.209-.367Zm-5.891,9.417a1.28,1.28,0,0,1-1.279,1.279H2.132A1.28,1.28,0,0,1,.853,10.547V2.131A1.28,1.28,0,0,1,2.132.852H12.743a1.28,1.28,0,0,1,1.279,1.279Zm5.248-.057-4.395-2.4V4.615l4.395-2.4Zm0,0" transform="translate(0 0)" fill="#fff"/>
</svg>
